<svg width="22" height="16" viewBox="0 0 22 16" fill="none" xmlns="http://www.w3.org/2000/svg">
<path d="M11 5.5C10.2044 5.5 9.44129 5.81607 8.87868 6.37868C8.31607 6.94129 8 7.70435 8 8.5C8 9.29565 8.31607 10.0587 8.87868 10.6213C9.44129 11.1839 10.2044 11.5 11 11.5C11.7956 11.5 12.5587 11.1839 13.1213 10.6213C13.6839 10.0587 14 9.29565 14 8.5C14 7.70435 13.6839 6.94129 13.1213 6.37868C12.5587 5.81607 11.7956 5.5 11 5.5ZM11 13.5C9.67392 13.5 8.40215 12.9732 7.46447 12.0355C6.52678 11.0979 6 9.82608 6 8.5C6 7.17392 6.52678 5.90215 7.46447 4.96447C8.40215 4.02678 9.67392 3.5 11 3.5C12.3261 3.5 13.5979 4.02678 14.5355 4.96447C15.4732 5.90215 16 7.17392 16 8.5C16 9.82608 15.4732 11.0979 14.5355 12.0355C13.5979 12.9732 12.3261 13.5 11 13.5ZM11 1C6 1 1.73 4.11 0 8.5C1.73 12.89 6 16 11 16C16 16 20.27 12.89 22 8.5C20.27 4.11 16 1 11 1Z" fill="#C7C7C7"/>
<line y1="-1" x2="22.8035" y2="-1" transform="matrix(0.789352 0.613941 -0.707456 0.706757 1 2)" stroke="white" stroke-width="2"/>
<line y1="-0.5" x2="22.8035" y2="-0.5" transform="matrix(0.789352 0.613941 -0.707456 0.706757 1 2)" stroke="#C7C7C7"/>
</svg>
