<svg width="30" height="30" viewBox="0 0 30 30" fill="none" xmlns="http://www.w3.org/2000/svg">
<circle cx="15" cy="15" r="15" fill="#ABFAA4"/>
<path d="M14.0489 4.92705C14.3483 4.00574 15.6517 4.00574 15.9511 4.92705L17.6942 10.2918C17.828 10.7038 18.212 10.9828 18.6452 10.9828H24.2861C25.2548 10.9828 25.6576 12.2224 24.8738 12.7918L20.3103 16.1074C19.9598 16.362 19.8132 16.8134 19.947 17.2254L21.6902 22.5902C21.9895 23.5115 20.935 24.2776 20.1513 23.7082L15.5878 20.3926C15.2373 20.138 14.7627 20.138 14.4122 20.3926L9.84869 23.7082C9.06498 24.2776 8.0105 23.5115 8.30985 22.5902L10.053 17.2254C10.1868 16.8134 10.0402 16.362 9.68969 16.1074L5.12616 12.7918C4.34245 12.2224 4.74523 10.9828 5.71395 10.9828H11.3548C11.788 10.9828 12.172 10.7038 12.3058 10.2918L14.0489 4.92705Z" fill="#51C546"/>
</svg>
