<svg width="51" height="51" viewBox="0 0 51 51" fill="none" xmlns="http://www.w3.org/2000/svg">
<circle cx="25.5" cy="25.5" r="25.5" fill="white"/>
<circle cx="25.5" cy="25.5" r="25.4089" stroke="black" stroke-opacity="0.5" stroke-width="0.182143"/>
<path d="M25 26C24.2634 26 23.5267 25.8693 22.9525 25.6079L14.8587 21.917C14.4885 21.7486 13.625 21.2559 13.625 20.3256C13.625 19.3954 14.4885 18.9037 14.8598 18.7331L23.0236 15.0105C24.1485 14.4965 25.846 14.4965 26.9715 15.0105L35.1402 18.7331C35.5115 18.9021 36.375 19.3948 36.375 20.3256C36.375 21.2564 35.5115 21.7475 35.1402 21.9176L27.0464 25.6079C26.4733 25.8693 25.7366 26 25 26Z" fill="black"/>
<path d="M35.1369 24.4037L34.3116 24.0312L32.1914 25.0014L27.0508 27.353C26.4766 27.6155 25.7383 27.7462 25.0033 27.7462C24.2683 27.7462 23.5305 27.6155 22.9569 27.353L17.8124 25.0014L15.6916 24.0312L14.8593 24.4053C14.4885 24.5743 13.625 25.0703 13.625 26C13.625 26.9297 14.4885 27.4263 14.8587 27.5952L22.9525 31.2937C23.5234 31.5562 24.2612 31.6875 25 31.6875C25.7388 31.6875 26.4733 31.5563 27.0475 31.2943L35.1341 27.5969C35.5066 27.4279 36.375 26.9346 36.375 26C36.375 25.0654 35.5126 24.5743 35.1369 24.4037Z" fill="black"/>
<path d="M35.1369 30.0906L34.3116 29.7188L32.1914 30.6884L27.0508 33.0372C26.4766 33.2986 25.7383 33.4298 25.0033 33.4298C24.2683 33.4298 23.5305 33.2991 22.9569 33.0372L17.8124 30.6856L15.6916 29.7188L14.8593 30.0928C14.4885 30.2618 13.625 30.7578 13.625 31.6875C13.625 32.6172 14.4885 33.1132 14.8587 33.2816L22.9525 36.978C23.5234 37.2394 24.2639 37.375 25 37.375C25.7361 37.375 26.47 37.2394 27.0442 36.9774L35.1336 33.2822C35.5066 33.1138 36.375 32.6205 36.375 31.6875C36.375 30.7545 35.5126 30.2618 35.1369 30.0906Z" fill="black"/>
</svg>
