<svg width="51" height="51" viewBox="0 0 51 51" fill="none" xmlns="http://www.w3.org/2000/svg">
<circle cx="25.5" cy="25.5" r="25.5" fill="white"/>
<circle cx="25.5" cy="25.5" r="25.4089" stroke="black" stroke-opacity="0.5" stroke-width="0.182143"/>
<path d="M35.4062 23.25H27.75C27.0538 23.25 26.3861 22.9734 25.8938 22.4812C25.4016 21.9889 25.125 21.3212 25.125 20.625V12.9688C25.125 12.9107 25.102 12.8551 25.0609 12.8141C25.0199 12.773 24.9643 12.75 24.9062 12.75H19.875C18.9467 12.75 18.0565 13.1187 17.4001 13.7751C16.7437 14.4315 16.375 15.3217 16.375 16.25V33.75C16.375 34.6783 16.7437 35.5685 17.4001 36.2249C18.0565 36.8813 18.9467 37.25 19.875 37.25H32.125C33.0533 37.25 33.9435 36.8813 34.5999 36.2249C35.2563 35.5685 35.625 34.6783 35.625 33.75V23.4688C35.625 23.4107 35.602 23.3551 35.5609 23.3141C35.5199 23.273 35.4643 23.25 35.4062 23.25ZM30.375 32H21.625C21.3929 32 21.1704 31.9078 21.0063 31.7437C20.8422 31.5796 20.75 31.3571 20.75 31.125C20.75 30.8929 20.8422 30.6704 21.0063 30.5063C21.1704 30.3422 21.3929 30.25 21.625 30.25H30.375C30.6071 30.25 30.8296 30.3422 30.9937 30.5063C31.1578 30.6704 31.25 30.8929 31.25 31.125C31.25 31.3571 31.1578 31.5796 30.9937 31.7437C30.8296 31.9078 30.6071 32 30.375 32ZM30.375 27.625H21.625C21.3929 27.625 21.1704 27.5328 21.0063 27.3687C20.8422 27.2046 20.75 26.9821 20.75 26.75C20.75 26.5179 20.8422 26.2954 21.0063 26.1313C21.1704 25.9672 21.3929 25.875 21.625 25.875H30.375C30.6071 25.875 30.8296 25.9672 30.9937 26.1313C31.1578 26.2954 31.25 26.5179 31.25 26.75C31.25 26.9821 31.1578 27.2046 30.9937 27.3687C30.8296 27.5328 30.6071 27.625 30.375 27.625Z" fill="black"/>
<path d="M34.9261 21.3136L27.0615 13.449C27.0462 13.4338 27.0267 13.4234 27.0056 13.4193C26.9844 13.4151 26.9625 13.4172 26.9426 13.4255C26.9227 13.4337 26.9056 13.4477 26.8936 13.4656C26.8816 13.4835 26.8751 13.5045 26.875 13.5261V20.6251C26.875 20.8571 26.9672 21.0797 27.1313 21.2438C27.2954 21.4079 27.5179 21.5001 27.75 21.5001H34.849C34.8705 21.5 34.8916 21.4935 34.9095 21.4815C34.9274 21.4695 34.9414 21.4524 34.9496 21.4325C34.9578 21.4126 34.96 21.3906 34.9558 21.3695C34.9516 21.3483 34.9413 21.3289 34.9261 21.3136Z" fill="black"/>
</svg>
