<svg width="51" height="51" viewBox="0 0 51 51" fill="none" xmlns="http://www.w3.org/2000/svg">
<circle cx="25.5" cy="25.5" r="25.5" fill="white"/>
<circle cx="25.5" cy="25.5" r="25.4089" stroke="black" stroke-opacity="0.5" stroke-width="0.182143"/>
<g clip-path="url(#clip0_268_183)">
<path d="M36.8425 20.9745C36.8425 18.8652 35.291 17.1683 33.3738 17.1683C30.7769 17.0469 28.1285 17 25.4219 17H24.5782C21.8782 17 19.225 17.0469 16.6282 17.1687C14.7157 17.1687 13.1641 18.875 13.1641 20.9844C13.0469 22.6527 12.9972 24.3214 13 25.9902C12.9954 27.6589 13.0485 29.3292 13.1594 31.0011C13.1594 33.1105 14.711 34.8214 16.6235 34.8214C19.3516 34.948 22.15 35.0042 24.9954 34.9995C27.8454 35.0089 30.636 34.9495 33.3672 34.8214C35.2844 34.8214 36.836 33.1105 36.836 31.0011C36.9485 29.3277 37 27.6589 36.9954 25.9855C37.006 24.3167 36.955 22.6464 36.8425 20.9745ZM22.7032 30.5886V21.3777L29.5 25.9808L22.7032 30.5886Z" fill="black"/>
</g>
<defs>
<clipPath id="clip0_268_183">
<rect width="24" height="24" fill="white" transform="translate(13 14)"/>
</clipPath>
</defs>
</svg>
