<svg width="23" height="23" viewBox="0 0 23 23" fill="none" xmlns="http://www.w3.org/2000/svg">
<g clip-path="url(#clip0_294_73)">
<path d="M10.5416 3.8335H3.83329C3.32496 3.8335 2.83745 4.03543 2.478 4.39487C2.11856 4.75432 1.91663 5.24183 1.91663 5.75016V19.1668C1.91663 19.6752 2.11856 20.1627 2.478 20.5221C2.83745 20.8816 3.32496 21.0835 3.83329 21.0835H17.25C17.7583 21.0835 18.2458 20.8816 18.6052 20.5221C18.9647 20.1627 19.1666 19.6752 19.1666 19.1668V12.4585" stroke="#858585" stroke-width="1.91667" stroke-linecap="round" stroke-linejoin="round"/>
<path d="M17.7291 2.39621C18.1104 2.01496 18.6275 1.80078 19.1666 1.80078C19.7058 1.80078 20.2229 2.01496 20.6041 2.39621C20.9854 2.77746 21.1996 3.29455 21.1996 3.83371C21.1996 4.37288 20.9854 4.88996 20.6041 5.27121L11.5 14.3754L7.66663 15.3337L8.62496 11.5004L17.7291 2.39621Z" stroke="#858585" stroke-width="1.91667" stroke-linecap="round" stroke-linejoin="round"/>
</g>
<defs>
<clipPath id="clip0_294_73">
<rect width="23" height="23" fill="white"/>
</clipPath>
</defs>
</svg>
