<svg width="18" height="18" viewBox="0 0 18 18" fill="none" xmlns="http://www.w3.org/2000/svg">
<path d="M10.125 3.05611C10.125 2.26974 9.14514 1.91086 8.6372 2.51049L6.33883 5.22736C6.23321 5.352 6.10171 5.45214 5.95347 5.52082C5.80524 5.5895 5.64382 5.62507 5.48045 5.62505H3.37502C2.77828 5.62505 2.20598 5.8621 1.78403 6.28406C1.36207 6.70602 1.12502 7.27832 1.12502 7.87505V10.1251C1.12502 10.7218 1.36207 11.2941 1.78403 11.716C2.20598 12.138 2.77828 12.3751 3.37502 12.3751H5.48045C5.64387 12.3751 5.80531 12.4108 5.95355 12.4795C6.10179 12.5483 6.23326 12.6486 6.33883 12.7733L8.6372 15.4896C9.14458 16.0892 10.125 15.7304 10.125 14.944V3.05611ZM12.0561 5.16155C12.117 5.11968 12.1855 5.09022 12.2578 5.07485C12.3301 5.05948 12.4047 5.05851 12.4774 5.07198C12.55 5.08546 12.6193 5.11313 12.6813 5.1534C12.7433 5.19367 12.7967 5.24575 12.8385 5.30668C13.6626 6.5048 14.0974 7.73893 14.0974 9.00005C14.0974 10.2612 13.6626 11.4953 12.8385 12.694C12.797 12.7557 12.7437 12.8085 12.6817 12.8495C12.6196 12.8904 12.55 12.9187 12.477 12.9326C12.404 12.9465 12.3289 12.9458 12.2562 12.9305C12.1834 12.9152 12.1144 12.8857 12.0531 12.8435C11.9919 12.8014 11.9396 12.7476 11.8992 12.6851C11.8589 12.6226 11.8314 12.5528 11.8182 12.4796C11.805 12.4065 11.8065 12.3314 11.8225 12.2588C11.8385 12.1862 11.8688 12.1175 11.9115 12.0567C12.6343 11.0048 12.973 9.98893 12.973 9.00005C12.973 8.01118 12.6343 6.9953 11.9115 5.94399C11.8271 5.82105 11.795 5.66963 11.8222 5.52301C11.8494 5.3764 11.9338 5.24659 12.0566 5.16211M14.4512 2.96836C14.3977 2.9174 14.3347 2.87746 14.2658 2.85084C14.1969 2.82421 14.1234 2.81142 14.0496 2.8132C13.9757 2.81498 13.9029 2.83128 13.8354 2.86119C13.7678 2.89109 13.7068 2.93401 13.6558 2.98749C13.6049 3.04097 13.5649 3.10397 13.5383 3.17288C13.5117 3.2418 13.4989 3.31528 13.5007 3.38914C13.5024 3.463 13.5187 3.53578 13.5486 3.60334C13.5786 3.67089 13.6215 3.7319 13.675 3.78286C15.0176 5.06143 15.7157 7.01105 15.7157 9.00061C15.7157 10.9902 15.0176 12.9398 13.675 14.2184C13.6215 14.2693 13.5786 14.3303 13.5486 14.3979C13.5187 14.4654 13.5024 14.5382 13.5007 14.6121C13.4989 14.6859 13.5117 14.7594 13.5383 14.8283C13.5649 14.8973 13.6049 14.9603 13.6558 15.0137C13.7068 15.0672 13.7678 15.1101 13.8354 15.14C13.9029 15.1699 13.9757 15.1863 14.0496 15.188C14.1234 15.1898 14.1969 15.177 14.2658 15.1504C14.3347 15.1238 14.3977 15.0838 14.4512 15.0329C16.0616 13.4989 16.8401 11.2298 16.8401 9.00061C16.8401 6.77143 16.0616 4.50174 14.4506 2.9678" fill="#9D9D9D"/>
</svg>
